<svg xmlns="http://www.w3.org/2000/svg" width="646" height="786" viewBox="0 0 646 786" role="img" aria-labelledby="title desc">
  <title id="title">Home Assistant controls card with EspControl relay switches</title>
  <desc id="desc">A dark Home Assistant controls card showing Display Backlight, Relay 1, Relay 2, and Relay 3 switches.</desc>
  <rect width="646" height="786" fill="#0f0f0f"/>
  <rect x="21" y="28" width="610" height="730" rx="24" fill="#1b1b1b" stroke="#343434" stroke-width="2"/>
  <text x="62" y="130" fill="#eeeeee" font-family="Inter, Arial, sans-serif" font-size="53" font-weight="400">Controls</text>

  <g transform="translate(62 206)" fill="#ffc400">
    <circle cx="26" cy="24" r="15"/>
    <rect x="22" y="45" width="8" height="8" rx="2"/>
    <rect x="22" y="0" width="8" height="8" rx="2"/>
    <rect x="0" y="20" width="8" height="8" rx="2"/>
    <rect x="44" y="20" width="8" height="8" rx="2"/>
    <rect x="6" y="4" width="6" height="10" rx="1" transform="rotate(-45 9 9)"/>
    <rect x="40" y="4" width="6" height="10" rx="1" transform="rotate(45 43 9)"/>
    <path d="M17 39h18v6H17z"/>
  </g>
  <text x="169" y="240" fill="#dddddd" font-family="Inter, Arial, sans-serif" font-size="31">Display Backlight</text>
  <rect x="497" y="214" width="84" height="34" rx="17" fill="#176f87"/>
  <circle cx="559" cy="231" r="23" fill="#00a0cc"/>

  <g transform="translate(62 326)" fill="none" stroke="#376d9f" stroke-width="5" stroke-linecap="round">
    <path d="M0 16h12"/>
    <circle cx="13" cy="16" r="5" fill="#1b1b1b"/>
    <path d="M18 14l14-10"/>
    <circle cx="39" cy="16" r="5" fill="#1b1b1b"/>
    <path d="M45 16h7"/>
  </g>
  <text x="169" y="351" fill="#dddddd" font-family="Inter, Arial, sans-serif" font-size="31">Relay 1</text>
  <rect x="497" y="326" width="84" height="32" rx="16" fill="#4a4a4a"/>
  <circle cx="521" cy="342" r="23" fill="#aaaaaa"/>

  <g transform="translate(62 436)" fill="none" stroke="#376d9f" stroke-width="5" stroke-linecap="round">
    <path d="M0 16h12"/>
    <circle cx="13" cy="16" r="5" fill="#1b1b1b"/>
    <path d="M18 14l14-10"/>
    <circle cx="39" cy="16" r="5" fill="#1b1b1b"/>
    <path d="M45 16h7"/>
  </g>
  <text x="169" y="461" fill="#dddddd" font-family="Inter, Arial, sans-serif" font-size="31">Relay 2</text>
  <rect x="497" y="436" width="84" height="32" rx="16" fill="#4a4a4a"/>
  <circle cx="521" cy="452" r="23" fill="#aaaaaa"/>

  <g transform="translate(62 546)" fill="none" stroke="#376d9f" stroke-width="5" stroke-linecap="round">
    <path d="M0 16h12"/>
    <circle cx="13" cy="16" r="5" fill="#1b1b1b"/>
    <path d="M18 14l14-10"/>
    <circle cx="39" cy="16" r="5" fill="#1b1b1b"/>
    <path d="M45 16h7"/>
  </g>
  <text x="169" y="571" fill="#dddddd" font-family="Inter, Arial, sans-serif" font-size="31">Relay 3</text>
  <rect x="497" y="546" width="84" height="32" rx="16" fill="#4a4a4a"/>
  <circle cx="521" cy="562" r="23" fill="#aaaaaa"/>

  <path d="M21 646h610" stroke="#383838" stroke-width="2"/>
  <text x="71" y="712" fill="#4fc3f7" font-family="Inter, Arial, sans-serif" font-size="31" font-weight="600">Add to dashboard</text>
</svg>
